<svg width="120" height="37" viewBox="0 0 120 37" fill="none" xmlns="http://www.w3.org/2000/svg">
<path d="M54.7368 30.3096C53.0595 30.3096 51.5667 29.9239 50.2584 29.1523C48.9501 28.364 47.9269 27.2905 47.1889 25.9318C46.4509 24.5564 46.0819 22.9798 46.0819 21.2018C46.0819 19.4239 46.4509 17.8556 47.1889 16.4969C47.9269 15.1215 48.9417 14.0481 50.2332 13.2765C51.5248 12.4882 53.0092 12.094 54.6865 12.094C55.7768 12.094 56.8167 12.2953 57.8063 12.6978C58.7959 13.0836 59.6765 13.6287 60.4481 14.3332C61.2364 15.0209 61.8403 15.826 62.2596 16.7485L60.0455 17.7549C59.7268 17.0672 59.2907 16.4718 58.7372 15.9686C58.1837 15.4654 57.5547 15.0712 56.8502 14.7861C56.1625 14.5009 55.4413 14.3584 54.6865 14.3584C53.5124 14.3584 52.4641 14.6519 51.5415 15.239C50.619 15.826 49.8978 16.6311 49.3778 17.6543C48.8578 18.6774 48.5978 19.86 48.5978 21.2018C48.5978 22.5437 48.8578 23.7346 49.3778 24.7745C49.9145 25.8144 50.6442 26.6279 51.5667 27.215C52.506 27.7853 53.5711 28.0704 54.762 28.0704C55.5335 28.0704 56.2632 27.9195 56.9509 27.6175C57.6386 27.2989 58.2508 26.8711 58.7875 26.3344C59.3411 25.7809 59.7855 25.1519 60.121 24.4474L62.3351 25.4286C61.9157 26.3847 61.3203 27.2318 60.5487 27.9698C59.7772 28.7078 58.8882 29.2865 57.8818 29.7058C56.8922 30.1084 55.8439 30.3096 54.7368 30.3096ZM64.8178 30.0077V12.3959H67.208V30.0077H64.8178ZM78.2421 30.0077L78.1415 27.8188V23.441C78.1415 22.5185 78.0325 21.7469 77.8144 21.1263C77.6131 20.5057 77.2944 20.0361 76.8583 19.7174C76.439 19.3987 75.8771 19.2393 75.1726 19.2393C74.5185 19.2393 73.9482 19.3735 73.4618 19.6419C72.9921 19.9103 72.5979 20.3296 72.2793 20.8999L70.1658 20.0948C70.4678 19.5245 70.8452 19.0213 71.298 18.5852C71.7509 18.1323 72.296 17.7801 72.9334 17.5285C73.5708 17.2601 74.3172 17.1259 75.1726 17.1259C76.3635 17.1259 77.3531 17.3608 78.1415 17.8304C78.9298 18.3001 79.5169 18.9794 79.9027 19.8683C80.3052 20.7573 80.4981 21.856 80.4813 23.1643L80.4562 30.0077H78.2421ZM74.5436 30.3096C73.0508 30.3096 71.8851 29.9742 71.0464 29.3032C70.2245 28.6155 69.8136 27.6679 69.8136 26.4602C69.8136 25.1687 70.2413 24.1874 71.0967 23.5165C71.969 22.8288 73.1766 22.485 74.7198 22.485H78.217V24.3719H75.3739C74.2166 24.3719 73.4031 24.5564 72.9334 24.9255C72.4638 25.2777 72.2289 25.7725 72.2289 26.4099C72.2289 26.9969 72.447 27.4582 72.8831 27.7937C73.336 28.1124 73.9566 28.2717 74.7449 28.2717C75.4326 28.2717 76.0281 28.1291 76.5313 27.844C77.0344 27.5421 77.4286 27.1227 77.7138 26.586C77.9989 26.0493 78.1415 25.437 78.1415 24.7493H78.9717C78.9717 26.4602 78.6027 27.8188 77.8647 28.8252C77.1435 29.8148 76.0364 30.3096 74.5436 30.3096ZM84.9503 23.2397C84.9503 21.8811 85.2103 20.7741 85.7303 19.9187C86.2503 19.0632 86.9212 18.4259 87.7431 18.0065C88.5649 17.5872 89.4288 17.3775 90.3345 17.3775V19.6419C89.5797 19.6419 88.8585 19.7593 88.1708 19.9941C87.4999 20.2122 86.9463 20.5812 86.5102 21.1012C86.0909 21.6044 85.8812 22.2921 85.8812 23.1643L84.9503 23.2397ZM83.4911 30.0077V17.4278H85.8812V30.0077H83.4911ZM92.4135 30.0077V17.4278H94.8037V30.0077H92.4135ZM93.6212 14.7609C93.2354 14.7609 92.9 14.6183 92.6148 14.3332C92.3297 14.0313 92.1871 13.6874 92.1871 13.3016C92.1871 12.8991 92.3297 12.5636 92.6148 12.2953C92.9 12.0101 93.2354 11.8675 93.6212 11.8675C94.0238 11.8675 94.3592 12.0101 94.6276 12.2953C94.9127 12.5636 95.0553 12.8991 95.0553 13.3016C95.0553 13.6874 94.9127 14.0313 94.6276 14.3332C94.3592 14.6183 94.0238 14.7609 93.6212 14.7609ZM103.163 30.3096C101.905 30.3096 100.932 29.9909 100.244 29.3536C99.5564 28.6994 99.2126 27.7685 99.2126 26.5608V13.5029H101.603V26.2086C101.603 26.8292 101.754 27.3072 102.056 27.6427C102.374 27.9614 102.827 28.1207 103.414 28.1207C103.582 28.1207 103.766 28.0872 103.968 28.0201C104.169 27.953 104.412 27.8188 104.697 27.6175L105.603 29.4794C105.167 29.7645 104.748 29.9742 104.345 30.1084C103.959 30.2425 103.565 30.3096 103.163 30.3096ZM97.074 19.4909V17.4278H105.175V19.4909H97.074ZM109.498 35.3416C109.129 35.3416 108.718 35.2745 108.265 35.1403C107.829 35.0061 107.376 34.83 106.906 34.612L107.787 32.6495C108.156 32.8172 108.474 32.943 108.743 33.0269C109.028 33.1108 109.254 33.1527 109.422 33.1527C109.841 33.1527 110.194 33.0353 110.479 32.8005C110.781 32.5656 111.024 32.2386 111.208 31.8192L112.668 28.3723L117.146 17.4278H119.712L113.75 31.5676C113.431 32.3392 113.095 33.0101 112.743 33.5804C112.391 34.1507 111.955 34.5868 111.435 34.8887C110.932 35.1906 110.286 35.3416 109.498 35.3416ZM112.014 30.0077L106.504 17.4278H109.045L113.599 28.3472L114.328 30.0077H112.014Z" fill="#9B87F5"/>
<path d="M18.2903 29.4582C19.1039 29.4573 19.8926 29.1782 20.5257 28.6673C22.6856 26.9375 26.771 22.7273 26.771 19.1722C26.771 16.2553 24.5233 13.8843 21.7606 13.8843C20.3885 13.8843 19.1783 14.3745 18.2919 15.1978C17.4054 14.376 16.1952 13.8843 14.8231 13.8843C12.0605 13.8843 9.81271 16.2569 9.81271 19.1722C9.81271 22.7288 13.8966 26.9391 16.0565 28.6688C16.6891 29.1794 17.4773 29.4569 18.2903 29.4582ZM21.7606 16.966C22.8228 16.966 23.6877 17.9558 23.6877 19.1706C23.6877 21.1378 20.7323 24.551 18.5987 26.2592C18.5125 26.3316 18.4036 26.3713 18.2911 26.3713C18.1786 26.3713 18.0697 26.3316 17.9835 26.2592C15.8499 24.551 12.896 21.1378 12.896 19.1691C12.896 17.9527 13.7609 16.9645 14.8231 16.9645C15.782 16.9645 16.7502 17.5411 16.7502 18.8284C16.7502 19.2373 16.9126 19.6294 17.2018 19.9185C17.4909 20.2076 17.883 20.37 18.2919 20.37C18.7007 20.37 19.0929 20.2076 19.382 19.9185C19.6711 19.6294 19.8335 19.2373 19.8335 18.8284C19.8335 17.4517 20.8726 16.9645 21.7606 16.9645V16.966ZM7.70833 37.0077H29.2917C33.542 37.0077 37 33.5498 37 29.2994V14.9989C37 12.4335 35.7312 10.0455 33.6037 8.60867L22.812 1.32583C21.5397 0.461896 20.0372 0 18.4992 0C16.9613 0 15.4588 0.461896 14.1864 1.32583L3.39475 8.60713C2.34859 9.31254 1.49184 10.2643 0.899876 11.3786C0.307915 12.4929 -0.00110626 13.7356 0 14.9973V29.2978C0 33.5482 3.45796 37.0077 7.70833 37.0077ZM18.4985 3.08796C19.4003 3.08796 20.3007 3.35313 21.0869 3.88346L31.8786 11.1648C32.5065 11.5878 33.0209 12.1588 33.3763 12.8274C33.7317 13.496 33.9172 14.2417 33.9167 14.9989V29.2994C33.9167 31.8493 31.8416 33.9244 29.2917 33.9244H7.70833C5.15841 33.9244 3.08333 31.8493 3.08333 29.2994V14.9989C3.08333 13.4588 3.84491 12.025 5.11987 11.1648L15.9115 3.88346C16.6751 3.36593 17.5761 3.08887 18.4985 3.08796Z" fill="#9B87F5"/>
</svg>
